<?xml version="1.0" encoding="UTF-8" standalone="no"?>
<!-- Created with Inkscape (http://www.inkscape.org/) -->

<svg
   width="172.2896mm"
   height="172.2896mm"
   viewBox="0 0 172.2896 172.2896"
   version="1.1"
   id="svg5"
   inkscape:version="1.1.2 (0a00cf5339, 2022-02-04)"
   sodipodi:docname="socwalk.svg"
   inkscape:export-filename="/home/daddy/socwalk.png"
   inkscape:export-xdpi="96"
   inkscape:export-ydpi="96"
   xmlns:inkscape="http://www.inkscape.org/namespaces/inkscape"
   xmlns:sodipodi="http://sodipodi.sourceforge.net/DTD/sodipodi-0.dtd"
   xmlns="http://www.w3.org/2000/svg"
   xmlns:svg="http://www.w3.org/2000/svg">
  <sodipodi:namedview
     id="namedview7"
     pagecolor="#ffffff"
     bordercolor="#666666"
     borderopacity="1.0"
     inkscape:pageshadow="2"
     inkscape:pageopacity="0.0"
     inkscape:pagecheckerboard="0"
     inkscape:document-units="mm"
     showgrid="false"
     inkscape:zoom="0.77771465"
     inkscape:cx="61.719295"
     inkscape:cy="394.10342"
     inkscape:window-width="1551"
     inkscape:window-height="1082"
     inkscape:window-x="26"
     inkscape:window-y="23"
     inkscape:window-maximized="0"
     inkscape:current-layer="layer1"
     fit-margin-top="0.1"
     fit-margin-left="0.1"
     fit-margin-bottom="0.1"
     fit-margin-right="0.1" />
  <defs
     id="defs2" />
  <g
     inkscape:label="Layer 1"
     inkscape:groupmode="layer"
     id="layer1"
     transform="translate(-11.653184,-16.863914)">
    <g
       id="g278"
       transform="matrix(2.3307885,0,0,2.3307885,11.558812,16.769542)">
      <g
         id="g5192">
        <rect
           width="52.28883"
           height="52.28883"
           rx="1.9379964"
           ry="1.9379964"
           x="-26.144415"
           y="26.181486"
           transform="rotate(-45)"
           style="fill:#ffcc00;stroke:#000000;stroke-width:1.5;stroke-linecap:round;stroke-linejoin:round"
           id="rect3165" />
        <path
           d="M 18.527116,47.750655 H 55.722883 M 26.593088,57.922282 h 21.063823"
           style="fill:none;stroke:#000000;stroke-width:1.5;stroke-linecap:round"
           id="path4161" />
        <path
           d="m 32.705025,22.54629 11.900214,4.923612 0.350447,8.613756 -2.808965,-0.648892 -0.877543,-4.761822 -1.599206,-0.524802 3.719576,14.095239 3.132275,8.613756 -3.132274,3.132275 -4.502646,-8.222222 -1.566137,-5.073413 -2.803241,4.015542 -1.699405,8.692791 h -4.494378 l 1.362103,-10.571428 4.111111,-9.201059 -1.174603,-3.005905 -2.172288,2.328988 -5.479167,2.142857 -1.587302,-0.426422 0.0377,-2.051422 5.858797,-3.438823 0.289022,-3.187831 z"
           style="fill:#000000;stroke:none"
           id="path2167" />
      </g>
      <path
         d="m 34.891299,20.712875 a 3.4913397,3.5023882 0 1 1 -6.982679,0 3.4913397,3.5023882 0 1 1 6.982679,0 z"
         style="opacity:1;fill:#000000;fill-opacity:1;stroke:none;stroke-width:1;stroke-linecap:round;stroke-linejoin:round;stroke-miterlimit:4;stroke-dasharray:none;stroke-opacity:1"
         id="path5187" />
    </g>
    <g
       id="g77"
       transform="matrix(0.00480682,0,0,0.00480682,63.682286,132.5654)">
      <g
         stroke="#000000"
         stroke-width="24"
         id="g63">
        <circle
           fill="#ffffff"
           r="2376"
           id="circle59"
           cx="0"
           cy="0" />
        <path
           fill="none"
           d="m -1643,-1716 155,158 m -550,2364 c 231,231 538,195 826,202 m -524,-2040 c -491,351 -610,1064 -592,1060 m 1216,-1008 c -51,373 84,783 364,1220 m -107,-2289 c 157,-157 466,-267 873,-329 m -528,4112 c -50,132 -37,315 -8,510 m 62,-3883 c 282,32 792,74 1196,303 M 336,1308 c 310,173 649,247 1060,180 M 1056,-520 C 814,-186 522,125 184,416 m 1109,-2119 c -111,-207 -296,-375 -499,-534 m 1146,1281 c 100,3 197,44 290,141 m -438,495 c 158,297 181,718 204,1140"
           id="path61" />
      </g>
      <path
         fill="#000000"
         d="m -1624,-1700 c 243,-153 498,-303 856,-424 141,117 253,307 372,492 -288,275 -562,544 -724,756 -274,-25 -410,-2 -740,-60 3,-244 84,-499 236,-764 z m 2904,-40 c 271,248 537,498 724,788 -55,262 -105,553 -180,704 -234,-35 -536,-125 -820,-200 -138,-357 -231,-625 -340,-924 210,-156 417,-296 616,-368 z M -1993,1293 A 2376,2376 0 0 1 -2371,-99 l 59,-7 c 54,342 124,674 311,928 -36,179 -2,323 51,458 z M -796,168 c 365,60 717,120 1060,180 106,333 120,667 156,1000 -263,218 -625,287 -944,420 -372,-240 -523,-508 -736,-768 122,-281 257,-561 464,-832 z m 3013,678 a 2376,2376 0 0 1 -925,1147 l -116,-5 c 84,-127 114,-297 118,-488 232,-111 464,-463 696,-772 86,30 159,72 227,118 z M -70,2373 a 2376,2376 0 0 1 -993,-251 c 199,74 367,143 542,83 53,75 176,134 451,168 z"
         id="path65" />
    </g>
  </g>
</svg>
